<svg xmlns="http://www.w3.org/2000/svg" width="1200" height="630" viewBox="0 0 1200 630">
  <defs>
    <pattern id="grid" width="30" height="30" patternUnits="userSpaceOnUse">
      <path d="M30 0H0V30" fill="none" stroke="#23273a" stroke-opacity="0.06" stroke-width="1"/>
    </pattern>
    <linearGradient id="brandline" x1="0" y1="0" x2="1" y2="0">
      <stop offset="0" stop-color="#1a7bec"/>
      <stop offset="1" stop-color="#00dfb7"/>
    </linearGradient>
  </defs>

  <rect width="1200" height="630" fill="#fbfaf7"/>
  <rect width="1200" height="630" fill="url(#grid)"/>
  <rect x="0" y="0" width="1200" height="6" fill="url(#brandline)"/>

  <!-- vesica symbol -->
  <g transform="translate(96 96) scale(0.62)">
    <path fill="#ffdc4a" d="M95.79,83.73a95.44,95.44,0,0,1,31.82-71.27,83.73,83.73,0,1,0,0,142.54A95.44,95.44,0,0,1,95.79,83.73Z" transform="translate(0.08 0.01)"/>
    <path fill="#1a7bec" d="M179.46,83.73A95.44,95.44,0,0,1,147.6,155a83.73,83.73,0,1,0,0-142.54A95.44,95.44,0,0,1,179.46,83.73Z" transform="translate(0.08 0.01)"/>
    <path fill="#00dfb7" d="M167.49,83.73a83.57,83.57,0,0,0-29.87-64,83.59,83.59,0,0,0,0,128.09A83.57,83.57,0,0,0,167.49,83.73Z" transform="translate(0.08 0.01)"/>
  </g>

  <!-- wordmark -->
  <g transform="translate(290 108) scale(0.72)" fill="#2e3349">
    <path d="M27.3,3.19,29.48,17C38.67,2.23,51,0,63.12,0S87.33,4.84,93.86,11.38L80.55,37.08a29.5,29.5,0,0,0-21.31-7.74c-15.5,0-29.71,8.23-29.71,30.27v62.92H0V3.19Z"/>
    <path d="M201.49,122.54V60.08c0-18.16-9.93-32-28.8-32-18.16,0-30.5,15.26-30.5,33.42v61H112.93V2.94h26.39l1.92,16.23C153.35,7.3,165.45,1.26,180.46,1.26c28.08,0,50.68,21.06,50.68,58.58v62.7Z"/>
    <path d="M258,172.4V3.19h27.6l1.94,16.46C296.72,6.34,312.71.54,326.24.54,363,.54,387.41,27.89,387.41,63s-21.87,62.44-60.17,62.44c-12.58,0-31.23-3.88-39.71-17v63.91ZM358,62.94C358,44.29,345.39,29,324.08,29s-33.84,15.3-33.84,33.89S304,96.83,324.13,96.83,358,81.63,358,62.94Z"/>
  </g>

  <text x="100" y="330" font-family="Georgia, 'Times New Roman', serif" font-size="50" font-weight="bold" fill="#23273a">Powering end-to-end email encryption</text>
  <text x="100" y="394" font-family="Georgia, 'Times New Roman', serif" font-size="50" font-weight="bold" fill="#23273a">in Mozilla Thunderbird.</text>

  <text x="100" y="462" font-family="Menlo, monospace" font-size="21" letter-spacing="3" fill="#565c75">SECURE EMAIL WITH UNRIVALED PERFORMANCE</text>

  <rect x="100" y="510" width="120" height="3" fill="url(#brandline)"/>

  <text x="100" y="566" font-family="Menlo, monospace" font-size="20" letter-spacing="2" fill="#1a7bec">LIBREPGP · RFC 4880</text>
  <text x="1010" y="566" font-family="Menlo, monospace" font-size="20" letter-spacing="2" fill="#8b8fa3" text-anchor="end">WWW.RNPGP.ORG</text>
</svg>
