<svg width="996" height="239" viewBox="42 392 996 239" fill="none" xmlns="http://www.w3.org/2000/svg">
<path d="M100.523 482.221L120.087 575.2H128.143L147.707 482.221H200.07V625.14H172.258V506.568H164.202L137.541 625.14H110.593L84.0277 506.568H75.9719V625.14H48.1602V482.221H100.523ZM273.531 515.674C307.001 515.674 326.469 535.42 326.469 571.461C326.469 607.503 306.905 627.249 273.531 627.249C240.061 627.249 220.593 607.503 220.593 571.461C220.593 535.324 240.061 515.674 273.531 515.674ZM273.531 605.01C289.259 605.01 297.123 596.959 297.123 579.225V563.505C297.123 545.772 289.259 537.72 273.531 537.72C257.803 537.72 249.939 545.772 249.939 563.505V579.225C249.939 596.959 257.803 605.01 273.531 605.01ZM341.334 604.435L398.109 538.391H342.102V517.687H431.483V538.391L374.708 604.435H432.346V625.14H341.334V604.435ZM448.937 517.687H489.983V625.14H462.172V538.391H448.841V517.687H448.937ZM462.172 482.221H489.983V502.925H462.172V482.221ZM510.507 482.221H551.649V625.14H523.837V502.925H510.507V482.221ZM572.172 482.221H613.218V625.14H585.406V502.925H572.076V482.221H572.172ZM678.72 515.674C695.023 515.674 705.86 523.534 708.929 537.241H716.985V517.687H751.03V538.391H737.7V604.435H751.03V625.14H734.727C723.218 625.14 716.985 618.909 716.985 607.407V605.585H708.929C705.956 619.293 695.023 627.153 678.72 627.153C653.114 627.153 634.988 605.777 634.988 571.365C634.988 536.954 653.114 515.674 678.72 515.674ZM687.159 605.01C702.887 605.01 709.888 596.959 709.888 579.225V563.505C709.888 545.772 702.887 537.72 687.159 537.72C671.815 537.72 664.43 545.772 664.43 563.505V579.225C664.43 596.959 671.815 605.01 687.159 605.01Z" fill="black"/>
<path d="M864.587 625.136H836.775V397.674H864.587V625.136ZM888.755 516.437H1006.81V508.386L928.65 480.396V457.87L1006.81 429.881V421.829H913.785V397.674H1031.84V443.588L968.162 465.155V473.207L1031.84 494.774V540.689H888.755V516.437ZM888.755 421.829H913.689V446.751H888.755V421.829Z" fill="black"/>
</svg>
